<svg width="177" height="43" viewBox="0 0 177 43" fill="none" xmlns="http://www.w3.org/2000/svg">
<path d="M12.0815 13.8105C14.4027 12.669 15.817 10.3742 15.817 7.91889V1.84893C15.817 0.826371 14.9355 0 13.8447 0H8.70755C3.96366 0 0.316956 2.96066 0.0252199 6.88444C-0.387016 12.4907 5.85361 16.8841 12.0879 13.8164L12.0815 13.8105Z" fill="url(#paint0_linear_21_112)"/>
<path d="M15.8174 27.2284L15.8174 37.9475C15.8174 38.5241 15.3164 38.9997 14.6948 38.9997H10.0587C4.50941 38.9997 0.000191689 34.7787 0.000191689 29.5708V20.445C0.000191689 19.4284 0.881747 18.6021 1.96625 18.6021H6.60865C11.6887 18.6021 15.8174 22.4664 15.8174 27.2344V27.2284Z" fill="url(#paint1_linear_21_112)"/>
<path d="M35.756 3.288C35.932 3.288 36.108 3.464 36.108 3.684V33.648C36.108 33.824 35.932 34 35.756 34H28.672C28.452 34 28.32 33.824 28.32 33.648V3.684C28.32 3.464 28.452 3.288 28.672 3.288H35.756ZM56.3593 4.52C61.9033 6.94 65.5113 12.484 65.5113 18.644C65.5113 21.636 64.6753 24.496 63.0913 26.96C61.5953 29.38 59.4393 31.316 56.9313 32.548C55.3033 33.34 53.8953 34.044 49.2753 34.044H40.0793C39.8593 34.044 39.7273 33.868 39.7273 33.648V3.64C39.7273 3.464 39.8593 3.288 40.0793 3.288H49.0553C53.0153 3.288 54.9073 3.86 56.3593 4.52ZM55.6113 24.496C57.0193 23.044 57.7673 21.02 57.7673 18.644C57.7233 10.636 49.4513 10.328 47.5593 10.372C47.3393 10.372 47.2073 10.548 47.2073 10.768V26.476C47.2073 26.696 47.3833 26.872 47.6033 26.872H47.9993C51.2553 26.872 54.2033 25.948 55.6113 24.496ZM86.2261 26.96C86.4461 26.96 86.6661 27.18 86.6221 27.4L86.0061 33.692C85.9621 33.912 85.8301 34.044 85.6101 34.044H68.8901C68.6701 34.044 68.4941 33.868 68.4941 33.604V3.684C68.4941 3.508 68.6261 3.332 68.8461 3.332H85.6101C85.8301 3.332 85.9621 3.464 86.0061 3.684L86.6221 9.932C86.6221 10.196 86.4461 10.372 86.2261 10.372H76.6781C76.4581 10.372 76.2821 10.548 76.2821 10.768V14.508C76.2821 14.728 76.4581 14.904 76.6781 14.904H83.6301C83.8501 14.904 84.0261 15.08 84.0261 15.3V21.548C84.0261 21.768 83.8501 21.944 83.6301 21.944H76.6781C76.4581 21.944 76.2821 22.12 76.2821 22.34V26.564C76.2821 26.784 76.4581 26.96 76.6781 26.96H86.2261ZM118.088 33.56C118.176 33.824 118 34.088 117.736 34.088H110.168C109.948 34.088 109.772 33.956 109.728 33.736L108.1 28.896C108.056 28.764 107.924 28.632 107.748 28.632H98.3316C98.1996 28.632 98.0236 28.764 97.9796 28.896L96.3516 33.824C96.3076 33.956 96.1756 34.088 95.9996 34.088H88.3436C88.0796 34.088 87.9036 33.824 87.9916 33.56L99.2996 3.596C99.3436 3.42 99.5196 3.288 99.7396 3.288H106.384C106.56 3.288 106.736 3.376 106.78 3.552L118.088 33.56ZM105.416 22.34C105.68 22.34 105.856 22.076 105.768 21.856L103.436 14.684C103.304 14.332 102.776 14.332 102.688 14.684L100.312 21.856C100.224 22.12 100.4 22.34 100.664 22.34H105.416ZM138.273 17.808C141.045 19.084 142.453 21.416 142.409 24.672C142.409 27.356 141.353 29.952 139.637 31.36C136.821 33.824 134.709 34.044 129.825 34.044H120.321C120.101 34.044 119.969 33.868 119.969 33.648V3.684C119.969 3.464 120.101 3.332 120.321 3.332H131.013C134.225 3.332 136.997 4.08 138.669 5.4C140.429 6.764 141.353 8.832 141.353 11.428C141.353 13.584 140.209 15.652 138.229 17.148C138.009 17.324 138.009 17.676 138.273 17.808ZM127.317 10.724V15.212C127.317 15.432 127.493 15.608 127.713 15.608H130.133C130.617 15.608 131.629 15.608 132.421 15.256C133.521 14.86 134.093 14.024 134.093 12.836C134.093 11.736 133.565 10.988 132.553 10.636C131.717 10.328 130.749 10.328 130.133 10.328H127.713C127.493 10.328 127.317 10.504 127.317 10.724ZM133.389 26.696C134.445 26.256 135.017 25.42 135.017 24.188C135.017 23.044 134.489 22.296 133.477 21.9C132.685 21.592 131.673 21.592 131.057 21.592H127.669C127.493 21.592 127.317 21.768 127.317 21.944V26.696C127.317 26.872 127.493 27.048 127.669 27.048H131.057C131.541 27.048 132.553 27.048 133.389 26.696ZM152.605 3.288C152.781 3.288 152.957 3.464 152.957 3.684V33.648C152.957 33.824 152.781 34 152.605 34H145.521C145.301 34 145.169 33.824 145.169 33.648V3.684C145.169 3.464 145.301 3.288 145.521 3.288H152.605ZM175.365 3.2C175.585 3.2 175.761 3.376 175.761 3.596V9.932C175.761 10.108 175.585 10.284 175.365 10.284H169.909C169.689 10.284 169.513 10.46 169.513 10.68V33.604C169.513 33.78 169.381 33.956 169.161 33.956H162.077C161.857 33.956 161.725 33.78 161.725 33.604V10.68C161.725 10.46 161.549 10.284 161.329 10.284H155.829C155.609 10.284 155.477 10.108 155.477 9.932V3.596C155.477 3.376 155.609 3.2 155.829 3.2H175.365Z" fill="#192750"/>
<defs>
<linearGradient id="paint0_linear_21_112" x1="15.6648" y1="9.6727" x2="1.41698" y2="2.89322" gradientUnits="userSpaceOnUse">
<stop stop-color="#EC1B69"/>
<stop offset="1" stop-color="#F05B57"/>
</linearGradient>
<linearGradient id="paint1_linear_21_112" x1="14.6504" y1="22.2583" x2="5.3661" y2="32.8808" gradientUnits="userSpaceOnUse">
<stop stop-color="#EC1B69"/>
<stop offset="1" stop-color="#F05B57"/>
</linearGradient>
</defs>
</svg>
